<?xml version="1.0" encoding="iso-8859-1"?>
<!-- Uploaded to: SVG Repo, www.svgrepo.com, Generator: SVG Repo Mixer Tools -->
<svg fill="#000000" height="800px" width="800px" version="1.1" id="Layer_1" xmlns="http://www.w3.org/2000/svg" xmlns:xlink="http://www.w3.org/1999/xlink" 
	 viewBox="0 0 496 496" xml:space="preserve">
<g>
	<g>
		<g>
			<path d="M456,120h-56v-1.136c13.76-3.576,24-15.992,24-30.864c0-17.648-14.352-32-32-32c-11.336,0-21.256,5.96-26.936,14.88
				L231.808,33.864C231.848,33.232,232,32.64,232,32c0-17.648-14.352-32-32-32s-32,14.352-32,32c0,2.736,0.448,5.344,1.096,7.88
				l-47.28,29.56C116.72,66.008,110.592,64,104,64c-17.648,0-32,14.352-32,32c0,9.608,4.336,18.128,11.056,24H40
				c-22.056,0-40,17.944-40,40v240c0,22.056,17.944,40,40,40h96v40h-32v16h288v-16h-32v-40h96c22.056,0,40-17.944,40-40V160
				C496,137.944,478.056,120,456,120z M392,72c8.824,0,16,7.176,16,16s-7.176,16-16,16c-8.824,0-16-7.176-16-16S383.176,72,392,72z
				 M408,256c0,8.824-7.176,16-16,16c-8.824,0-16-7.176-16-16c0-8.824,7.176-16,16-16C400.824,240,408,247.176,408,256z
				 M368.808,109.92c4.064,4.304,9.296,7.408,15.192,8.944v106.272c-7.92,2.056-14.648,7.008-18.936,13.744L304,221.92v-39.056
				c13.76-3.576,24-15.992,24-30.864c0-5.184-1.352-10.016-3.552-14.352L368.808,109.92z M132.448,249.648l44.36-27.728
				C182.648,228.096,190.856,232,200,232c11.336,0,21.256-5.96,26.936-14.88L288,234.08v55.056
				c-7.92,2.056-14.648,7.008-18.936,13.744l-133.248-37.016C135.848,265.232,136,264.64,136,264
				C136,258.816,134.648,253.984,132.448,249.648z M288,182.864v34.608l-56.192-15.608c0.04-0.632,0.192-1.224,0.192-1.864
				c0-14.872-10.24-27.288-24-30.864v-34.608l56.192,15.608C264.152,150.768,264,151.36,264,152
				C264,166.872,274.24,179.288,288,182.864z M280,152c0-8.824,7.176-16,16-16c8.824,0,16,7.176,16,16c0,8.824-7.176,16-16,16
				C287.176,168,280,160.824,280,152z M216,200c0,8.824-7.176,16-16,16c-8.824,0-16-7.176-16-16c0-8.824,7.176-16,16-16
				C208.824,184,216,191.176,216,200z M296,304c8.824,0,16,7.176,16,16c0,8.824-7.176,16-16,16c-8.824,0-16-7.176-16-16
				C280,311.176,287.176,304,296,304z M304,289.144v-50.608l56.192,15.608C360.152,254.768,360,255.36,360,256
				c0,2.736,0.448,5.344,1.096,7.88l-47.28,29.56C310.872,291.456,307.528,290.056,304,289.144z M226.936,49.12l133.256,37.016
				C360.152,86.768,360,87.36,360,88c0,2.736,0.448,5.344,1.096,7.88l-47.288,29.552C308.72,122.008,302.592,120,296,120
				c-11.336,0-21.256,5.96-26.936,14.88L208,117.92V62.864C215.92,60.808,222.648,55.856,226.936,49.12z M200,16
				c8.824,0,16,7.176,16,16s-7.176,16-16,16c-8.824,0-16-7.176-16-16S191.176,16,200,16z M176.808,53.92
				c4.064,4.304,9.296,7.408,15.192,8.944v50.608l-56.192-15.608C135.848,97.232,136,96.64,136,96
				c0-5.184-1.352-10.016-3.552-14.352L176.808,53.92z M130.936,113.12L192,130.08v39.056c-13.76,3.576-24,15.992-24,30.864
				c0,2.736,0.448,5.344,1.096,7.88l-47.288,29.552c-2.944-1.984-6.288-3.384-9.816-4.296V126.864
				C119.92,124.808,126.648,119.856,130.936,113.12z M120,264c0,8.824-7.176,16-16,16s-16-7.176-16-16c0-8.824,7.176-16,16-16
				S120,255.176,120,264z M104,80c8.824,0,16,7.176,16,16s-7.176,16-16,16s-16-7.176-16-16S95.176,80,104,80z M344,480H152v-40h192
				V480z M480,400c0,13.232-10.768,24-24,24H40c-13.232,0-24-10.768-24-24v-16h464V400z M480,368H16V160c0-13.232,10.768-24,24-24
				h56v97.136C82.24,236.712,72,249.128,72,264c0,17.648,14.352,32,32,32c11.336,0,21.256-5.96,26.936-14.88l133.248,37.016
				C264.152,318.768,264,319.36,264,320c0,17.648,14.352,32,32,32s32-14.352,32-32c0-5.184-1.352-10.016-3.552-14.352l44.36-27.728
				C374.648,284.096,382.856,288,392,288c17.648,0,32-14.352,32-32c0-14.872-10.24-27.288-24-30.864V136h56
				c13.232,0,24,10.768,24,24V368z"/>
			<polygon points="48,168 72,168 72,152 32,152 32,192 48,192 			"/>
			<polygon points="448,336 424,336 424,352 464,352 464,312 448,312 			"/>
			<polygon points="48,312 32,312 32,352 72,352 72,336 48,336 			"/>
			<polygon points="424,168 448,168 448,192 464,192 464,152 424,152 			"/>
		</g>
	</g>
</g>
</svg>